<svg xmlns="http://www.w3.org/2000/svg" version="1.1" xmlns:xlink="http://www.w3.org/1999/xlink" xmlns:svgjs="http://svgjs.com/svgjs" width="570" height="75" overflow="visible"><g class="signage-logo" opacity="1"><defs id="SvgjsDefs1002"><linearGradient id="SvgjsLinearGradient7A2TrlWqrP" gradientUnits="userSpaceOnUse" x1="5.642803192138699" y1="94.643404006958" x2="94.35660934448242" y2="5.929597854614257"><stop id="SvgjsStop1010" stop-color="#ff4c29" offset="0.408"></stop><stop id="SvgjsStop1011" stop-color="#51340a" offset="1"></stop></linearGradient></defs><g id="SvgjsG1008" transform="scale(1.454439787825585)" opacity="1"><g id="SvgjsG1012" class="beadGM2r8" transform="translate(-2.9061163366734637, -3.8208402217437807) scale(0.5812932068086524)" light-content="false" non-strokable="false" fill="url(#SvgjsLinearGradient7A2TrlWqrP)"><path d="M50.299 6.573C40.379 16.97 34.043 32.63 33.966 50.181 33.89 67.732 40.088 83.518 49.918 94c-2.85-15.867-.277-33.22 8.136-47.2 2.137-3.551 4.54-6.7 7.144-9.43C62.982 25.116 57.655 14.402 50.3 6.573z" color="#000"></path><path d="M6.181 24.14c-2.92 15.853-.477 33.146 7.875 47.163 8.351 14.017 20.351 21.873 33.206 22.693-9.876-10.44-15.602-26.198-15.602-43.75 0-4.49.406-8.828 1.181-13.018-7.634-8.035-17.058-12.488-26.66-13.089zm87.775.413C60.111 30.71 47.4 65.07 52.304 93.998 86.35 87.84 98.923 53.663 93.956 24.553z" color="#000"></path></g><g id="SvgjsG1013" class="text" transform="translate(230.16840656920493, 37.84888513113643) scale(1)" light-content="false" fill="#ffffff"><path d="M-144.37 -1.76L-144.37 0.44C-144.37 0.88 -144.51 1.25 -144.81 1.54C-145.1 1.84 -145.47 1.99 -145.91 1.99C-148.82 1.99 -153.09 1.76 -158.7 1.32L-158.7 7.06C-153.03 7.65 -147.88 7.94 -143.26 7.94C-141.26 7.94 -139.66 7.34 -138.46 6.13C-137.25 4.93 -136.65 3.32 -136.65 1.32L-136.65 -23.38L-152.97 -23.38C-155.18 -23.38 -156.9 -22.76 -158.15 -21.51C-159.4 -20.26 -160.03 -18.53 -160.03 -16.32L-160.03 -7.5C-160.03 -5.5 -159.43 -3.9 -158.22 -2.69C-157.01 -1.49 -155.41 -0.88 -153.41 -0.88L-151.87 -0.88C-149.72 -0.88 -147.22 -1.18 -144.37 -1.76ZM-149.66 -6.84L-150.76 -6.84C-151.2 -6.84 -151.57 -6.98 -151.87 -7.28C-152.16 -7.57 -152.31 -7.94 -152.31 -8.38L-152.31 -15.66C-152.31 -16.84 -151.72 -17.43 -150.54 -17.43L-144.37 -17.43L-144.37 -7.28C-146.04 -6.98 -147.81 -6.84 -149.66 -6.84Z M-118.78 -18.31L-114.81 -18.31C-113.63 -18.31 -113.05 -17.72 -113.05 -16.54L-113.05 -14.12L-120.54 -14.12L-120.54 -16.54C-120.54 -17.72 -119.96 -18.31 -118.78 -18.31ZM-106.21 -0.44L-106.21 -5.96C-111.82 -5.51 -116.09 -5.29 -119 -5.29C-119.44 -5.29 -119.81 -5.44 -120.1 -5.73C-120.4 -6.03 -120.54 -6.4 -120.54 -6.84L-120.54 -8.6L-105.33 -8.6L-105.33 -16.76C-105.33 -18.97 -105.95 -20.7 -107.2 -21.95C-108.45 -23.2 -110.18 -23.82 -112.38 -23.82L-121.21 -23.82C-123.41 -23.82 -125.14 -23.2 -126.39 -21.95C-127.64 -20.7 -128.26 -18.97 -128.26 -16.76L-128.26 -6.18C-128.26 -4.18 -127.66 -2.57 -126.46 -1.37C-125.25 -0.16 -123.65 0.44 -121.65 0.44C-117.03 0.44 -111.88 0.15 -106.21 -0.44Z M-80.62 0L-80.62 -5.73L-86.36 -5.73C-86.8 -5.73 -87.16 -5.88 -87.46 -6.18C-87.75 -6.47 -87.9 -6.84 -87.9 -7.28L-87.9 -17.43L-82.39 -17.43L-82.39 -23.38L-87.9 -23.38L-87.9 -28.67L-94.74 -28.67L-95.62 -23.38L-98.27 -23.38L-98.27 -17.43L-95.62 -17.43L-95.62 -6.18C-95.62 -4.18 -95.02 -2.57 -93.81 -1.37C-92.61 -0.16 -91 0.44 -89 0.44C-86.27 0.44 -83.47 0.29 -80.62 0Z M-57.46 -23.82L-57.9 -23.82C-58.9 -23.82 -60.13 -23.61 -61.58 -23.18C-63.04 -22.76 -64.46 -22.09 -65.84 -21.18L-66.28 -23.38L-73.12 -23.38L-73.12 0L-65.4 0L-65.4 -16.54C-63.34 -17.13 -61.65 -17.43 -60.33 -17.43L-60.11 -17.43C-59.67 -17.43 -59.3 -17.28 -59 -16.98C-58.71 -16.69 -58.56 -16.32 -58.56 -15.88L-58.56 0L-50.84 0L-50.84 -16.54C-48.78 -17.13 -47.09 -17.43 -45.77 -17.43L-45.55 -17.43C-45.11 -17.43 -44.74 -17.28 -44.45 -16.98C-44.15 -16.69 -44 -16.32 -44 -15.88L-44 0L-36.28 0L-36.28 -17.2C-36.28 -19.2 -36.89 -20.81 -38.09 -22.01C-39.3 -23.22 -40.9 -23.82 -42.9 -23.82L-43.34 -23.82C-44.58 -23.82 -45.98 -23.61 -47.56 -23.18C-49.13 -22.76 -50.59 -22.09 -51.95 -21.18C-53.24 -22.94 -55.08 -23.82 -57.46 -23.82Z M-21.73 7.94C-19.4 7.94 -17.57 7.35 -16.21 6.15C-14.86 4.96 -13.76 3.21 -12.9 0.88L-4.08 -23.38L-12.24 -23.38L-16.87 -8.38L-22.39 -23.38L-30.55 -23.38L-21.51 -1.76C-21.04 -0.65 -20.97 0.22 -21.31 0.84C-21.65 1.46 -22.37 1.76 -23.49 1.76L-27.46 1.76L-27.46 7.5C-25.2 7.79 -23.29 7.94 -21.73 7.94Z M21.95 -0.44L21.95 -6.18C16.65 -5.73 12.68 -5.51 10.04 -5.51C9.6 -5.51 9.23 -5.66 8.93 -5.96C8.64 -6.25 8.49 -6.62 8.49 -7.06L8.49 -15.66C8.49 -16.84 9.08 -17.43 10.26 -17.43L21.95 -17.43L21.95 -23.38L7.83 -23.38C5.62 -23.38 3.9 -22.76 2.65 -21.51C1.4 -20.26 0.77 -18.53 0.77 -16.32L0.77 -6.18C0.77 -4.18 1.37 -2.57 2.58 -1.37C3.79 -0.16 5.39 0.44 7.39 0.44C11.59 0.44 16.45 0.15 21.95 -0.44Z M53.71 -6.62L53.71 -16.76C53.71 -18.97 53.09 -20.7 51.84 -21.95C50.59 -23.2 48.86 -23.82 46.65 -23.82L36.51 -23.82C34.3 -23.82 32.57 -23.2 31.32 -21.95C30.07 -20.7 29.45 -18.97 29.45 -16.76L29.45 -6.62C29.45 -4.41 30.07 -2.68 31.32 -1.43C32.57 -0.18 34.3 0.44 36.51 0.44L46.65 0.44C48.86 0.44 50.59 -0.18 51.84 -1.43C53.09 -2.68 53.71 -4.41 53.71 -6.62ZM45.99 -16.1L45.99 -7.28C45.99 -6.1 45.4 -5.51 44.23 -5.51L38.93 -5.51C37.76 -5.51 37.17 -6.1 37.17 -7.28L37.17 -16.1C37.17 -17.28 37.76 -17.87 38.93 -17.87L44.23 -17.87C45.4 -17.87 45.99 -17.28 45.99 -16.1Z M74 0L74 -5.73L71.36 -5.73C70.92 -5.73 70.55 -5.88 70.25 -6.18C69.96 -6.47 69.81 -6.84 69.81 -7.28L69.81 -30.88L62.09 -30.88L62.09 -6.18C62.09 -4.18 62.7 -2.57 63.9 -1.37C65.11 -0.16 66.6 0.44 68.38 0.44C70.16 0.44 72.03 0.29 74 0Z M105.33 -6.62L105.33 -16.76C105.33 -18.97 104.7 -20.7 103.45 -21.95C102.2 -23.2 100.47 -23.82 98.27 -23.82L88.12 -23.82C85.91 -23.82 84.19 -23.2 82.94 -21.95C81.69 -20.7 81.06 -18.97 81.06 -16.76L81.06 -6.62C81.06 -4.41 81.69 -2.68 82.94 -1.43C84.19 -0.18 85.91 0.44 88.12 0.44L98.27 0.44C100.47 0.44 102.2 -0.18 103.45 -1.43C104.7 -2.68 105.33 -4.41 105.33 -6.62ZM97.6 -16.1L97.6 -7.28C97.6 -6.1 97.02 -5.51 95.84 -5.51L90.55 -5.51C89.37 -5.51 88.78 -6.1 88.78 -7.28L88.78 -16.1C88.78 -17.28 89.37 -17.87 90.55 -17.87L95.84 -17.87C97.02 -17.87 97.6 -17.28 97.6 -16.1Z M127.16 -16.98L130.91 -16.98L130.91 -23.82L128.93 -23.82C126.16 -23.82 123.52 -22.72 120.99 -20.51L120.54 -23.38L113.71 -23.38L113.71 0L121.43 0L121.43 -15.66C123.4 -16.54 125.31 -16.98 127.16 -16.98Z M137.53 -6.18L137.53 -0.44C143.5 0.15 149.09 0.44 154.29 0.44C156.29 0.44 157.9 -0.16 159.1 -1.37C160.31 -2.57 160.91 -4.18 160.91 -6.18L160.91 -7.94C160.91 -9.94 160.31 -11.54 159.1 -12.75C157.9 -13.96 156.29 -14.56 154.29 -14.56L146.35 -14.56C145.91 -14.56 145.54 -14.71 145.25 -15C144.96 -15.29 144.81 -15.66 144.81 -16.1C144.81 -16.54 144.96 -16.91 145.25 -17.2C145.54 -17.5 145.91 -17.65 146.35 -17.65L158.7 -17.65L158.7 -23.38L143.71 -23.38C141.71 -23.38 140.1 -22.78 138.9 -21.57C137.69 -20.37 137.09 -18.76 137.09 -16.76L137.09 -15.22C137.09 -13.22 137.69 -11.62 138.9 -10.41C140.1 -9.21 141.71 -8.6 143.71 -8.6L153.19 -8.6L153.19 -7.06C153.19 -6.62 153.04 -6.25 152.75 -5.96C152.45 -5.66 152.09 -5.51 151.65 -5.51C148.21 -5.51 143.5 -5.73 137.53 -6.18Z"></path></g></g></g></svg>